<svg width="30" height="30" viewBox="0 0 30 30" fill="none" xmlns="http://www.w3.org/2000/svg">
<g id="x">
<path id="Vector" d="M7.57463 20.8329C7.13528 21.2723 7.13528 21.9845 7.57463 22.4238C8.01396 22.8632 8.72627 22.8632 9.16562 22.4238L14.9993 16.5902L20.8329 22.4238C21.2723 22.8632 21.9846 22.8632 22.424 22.4238C22.8633 21.9845 22.8633 21.2723 22.424 20.8329L16.5903 14.9992L22.4238 9.16562C22.8632 8.72627 22.8632 8.01396 22.4238 7.57463C21.9845 7.13528 21.2723 7.13528 20.8329 7.57463L14.9993 13.4082L9.16569 7.57463C8.72634 7.13528 8.01404 7.13528 7.5747 7.57463C7.13535 8.01396 7.13535 8.72627 7.5747 9.16562L13.4083 14.9992L7.57463 20.8329Z" fill="#CFD3D5"/>
</g>
</svg>
